<?xml version="1.0" encoding="UTF-8"?><svg id="Capa_2" xmlns="http://www.w3.org/2000/svg" viewBox="0 0 37.55 50.03"><g id="Capa_1-2"><path d="M18.77,0v50.03h-1.92v-6.16h-7.12S-2.58,40.41.49,25.01c0,0,4.89,7.5,8.89,7.31,0,0-7.55-9.81-6.39-12.51l3.85-5.77s.96,6.35,5.97,10.01c0,0-4.92-8.66-3.42-13.28l3.04-3.85,1.54.38.19-2.5L18.77,0Z" style="fill:#08bf00;"/><path d="M18.77,0v50.03s1.92,0,1.92,0v-6.16h7.12s12.31-3.46,9.24-18.86c0,0-4.89,7.5-8.89,7.31,0,0,7.55-9.81,6.39-12.51l-3.85-5.77s-.96,6.35-5.97,10.01c0,0,4.92-8.66,3.42-13.28l-3.04-3.85-1.54.38-.19-2.5L18.77,0Z" style="fill:#058e6e;"/><rect x="16.85" y="43.87" width="1.92" height="6.16" style="fill:#846312;"/><rect x="18.76" y="43.87" width="1.92" height="6.16" style="fill:#634709;"/><rect x="18.27" y="6.78" width="1" height="43.25" style="fill:#ffdd81;"/><polygon points="23.79 11.99 18.76 18.1 18.76 19.29 23.79 13.45 23.79 11.99" style="fill:#ffdd81;"/><polygon points="13.76 11.99 18.79 18.1 18.79 19.29 13.76 13.45 13.76 11.99" style="fill:#ffdd81;"/><polygon points="30.79 21.4 18.76 34.52 18.76 35.71 30.79 22.87 30.79 21.4" style="fill:#ffdd81;"/><polygon points="6.76 21.4 18.79 34.52 18.79 35.71 6.76 22.87 6.76 21.4" style="fill:#ffdd81;"/><polygon points="31.79 36.35 18.76 42.46 18.76 43.65 31.79 37.81 31.79 36.35" style="fill:#ffdd81;"/><polygon points="5.76 36.35 18.79 42.46 18.79 43.65 5.76 37.81 5.76 36.35" style="fill:#ffdd81;"/></g></svg>